<svg xmlns="http://www.w3.org/2000/svg" viewBox="0 0 336 140" version="1"><g style="fill-rule: evenodd;
	fill: none;"><g fill="#EF3340"><path d="M273 140L271 140 272.5 136 269.3 128 271.5 128 273.5 133.3 275.3 128 277.4 128 273 140ZM189.2 136.7C186.2 136.7 183.6 134.6 183.6 130.6 183.6 126.6 186.2 124.5 189.2 124.5 191.8 124.5 193.6 125.8 194.1 128.1L192.2 128.6C191.7 127.4 190.9 126.5 189.2 126.5 187.4 126.5 185.8 127.8 185.8 130.6 185.8 133.3 187.4 134.6 189.2 134.6 190.9 134.6 191.7 133.8 192.2 132.6L194.1 133.1C193.6 135.3 191.8 136.7 189.2 136.7ZM210.3 136.5L208.2 136.5 208.2 135.2C207.5 136.1 206.6 136.7 205.5 136.7 204 136.7 202.9 135.8 202.9 134.1L202.9 128 205 128 205 133.5C205 134.5 205.5 134.9 206.2 134.9 207.2 134.9 208.2 133.6 208.2 131.4L208.2 128 210.3 128 210.3 136.5ZM251.7 136.7C249.8 136.7 248.6 135.5 248.3 134.4L250 133.5C250.3 134.3 250.9 134.9 251.7 134.9 252.2 134.9 252.8 134.7 252.8 134 252.8 133.4 251.8 133.1 250.9 132.7 249.7 132.3 248.8 131.6 248.8 130.2 248.8 128.9 250 127.8 251.6 127.8 252.7 127.8 253.7 128.3 254.3 129.2L253 130.4C252.6 129.8 252.1 129.6 251.6 129.6 251.2 129.6 250.8 129.9 250.8 130.3 250.8 130.7 251.1 131 252.5 131.5 253.8 131.9 254.6 132.6 254.6 133.9 254.6 135.6 253.4 136.7 251.7 136.7ZM259.8 136.7C257.9 136.7 256.7 135.6 256.7 133.5L256.7 129.8 255.4 129.8 255.4 128 256.7 128 256.7 125.8 258.8 124.5 258.8 128 261.1 128 261.1 129.8 258.8 129.8 258.8 133.5C258.8 134.5 259.2 134.9 259.9 134.9 260.2 134.9 260.5 134.8 260.7 134.7L261.2 136.4C260.8 136.6 260.3 136.7 259.8 136.7ZM236.9 136.5L234.8 136.5 234.8 128 236.9 128 236.9 129.3C237.5 128.4 238.4 127.8 239.6 127.8 241.1 127.8 242.2 128.7 242.2 130.4L242.2 136.5 240.1 136.5 240.1 131C240.1 130 239.6 129.6 238.9 129.6 237.8 129.6 236.9 130.9 236.9 133.1L236.9 136.5ZM198 136.5L195.9 136.5 195.9 128 198 128 198 129.4C198.6 128.4 199.6 127.8 200.5 127.8 200.9 127.8 201.2 127.9 201.6 128L201.2 130C200.9 129.8 200.6 129.7 200.3 129.7 199.1 129.7 198 130.7 198 133.5L198 136.5ZM264.7 136.5L262.6 136.5 262.6 128 264.7 128 264.7 129.4C265.3 128.4 266.3 127.8 267.3 127.8 267.6 127.8 268 127.9 268.3 128L267.9 130C267.6 129.8 267.4 129.7 267 129.7 265.8 129.7 264.7 130.7 264.7 133.5L264.7 136.5ZM178.3 136.5L175.9 136.5 175.1 133.7 171.3 133.7 170.4 136.5 168 136.5 172.1 124.6 174.3 124.6 178.3 136.5ZM244.5 136.5L246.7 136.5 246.7 128 244.5 128 244.5 136.5ZM219.4 136.5L217.2 136.5 217.2 124.6 219.6 124.6 222.4 132.1 225.2 124.6 227.7 124.6 227.7 136.5 225.5 136.5 225.5 129.2 223.2 135.4 221.6 135.4 219.4 129.2 219.4 136.5ZM230.3 136.5L232.4 136.5 232.4 128 230.3 128 230.3 136.5ZM171.9 131.7L174.4 131.7 173.2 127.6 171.9 131.7ZM245.6 126.9C244.8 126.9 244.2 126.3 244.2 125.5 244.2 124.7 244.8 124.1 245.6 124.1 246.4 124.1 247 124.7 247 125.5 247 126.3 246.4 126.9 245.6 126.9ZM231.4 126.9C230.6 126.9 230 126.3 230 125.5 230 124.7 230.6 124.1 231.4 124.1 232.2 124.1 232.7 124.7 232.7 125.5 232.7 126.3 232.2 126.9 231.4 126.9ZM142.1 0.8C146.1 0.8 149.3 4.2 149.3 8.4L149.3 112.8C149.3 114.7 147.6 116.1 145.8 115.6L5.3 74.2C2.2 73.2 0 70.2 0 66.8L0 8.4C0 4.2 3.2 0.8 7.3 0.8L142.1 0.8ZM248.3 78.5L248.3 100.2C248.3 107.8 245.3 111.7 238.6 113.3L237.2 108C240.9 107 242.6 105.2 242.6 100.9L242.6 78.5 248.3 78.5ZM313.1 78.5L319.2 78.5 319.2 83.7 313.1 83.7 313.1 94.3C313.1 97.2 314.1 98.2 316.2 98.2 316.9 98.2 317.7 98 318.4 97.6L319.7 102.5C318.5 103.1 317.3 103.4 315.9 103.4 310.6 103.4 307.4 100.3 307.4 94.3L307.4 83.7 303.8 83.7 303.8 78.5 307.4 78.5 307.4 72.4 313.1 68.6 313.1 78.5ZM225.4 78.1C221.8 78.1 218.9 79.4 216.8 81.7 214.7 84.1 213.6 87.1 213.6 90.8 213.6 94.4 214.7 97.5 216.8 99.8 218.9 102.2 221.8 103.4 225.4 103.4 229.1 103.4 231.9 102.2 234.1 99.8 236.2 97.5 237.2 94.4 237.2 90.8 237.2 87.1 236.2 84.1 234.1 81.7 231.9 79.4 229.1 78.1 225.4 78.1ZM290 83.3C292.4 83.3 294.2 84.6 295.5 87.3L300.6 85.1C298.8 80.5 295.3 78.1 290 78.1 286.4 78.1 283.6 79.4 281.6 81.7 279.6 84.1 278.7 87.1 278.7 90.8 278.7 94.4 279.6 97.4 281.6 99.8 283.6 102.2 286.4 103.4 290 103.4 295.3 103.4 298.8 101 300.6 96.4L295.5 94.2C294.2 96.9 292.4 98.2 290 98.2 286.5 98.2 284.7 95.2 284.7 90.8 284.7 86.3 286.5 83.3 290 83.3ZM258.8 92.7C258.9 95.7 261 98.2 264.3 98.2 266.6 98.2 268.5 97 269.9 94.4L274.5 96.2C272.5 101 269 103.4 264 103.4 256 103.4 252.8 96.6 252.8 90.8 252.8 84.9 256 78.1 264 78.1 267.6 78.1 270.6 79.7 272.3 82.2 274 84.6 274.8 87.5 274.8 90.2L274.8 92.7 258.8 92.7ZM201.2 78.5L201.2 82.5C202.9 79.7 205.4 78.1 208.1 78.1 209 78.1 209.9 78.3 210.9 78.6L209.8 84.2C209.2 83.8 208.3 83.5 207.4 83.5 203.8 83.5 201.2 86.9 201.2 94.3L201.2 103 195.5 103 195.5 78.5 201.2 78.5ZM181.1 69C187.7 69 191.2 73.1 191.2 79.4 191.2 85.6 187.7 89.7 181.1 89.7L174.9 89.7 174.9 103 168.9 103 168.9 69 181.1 69ZM229.7 96.1C228.6 97.5 227.2 98.2 225.4 98.2 223.6 98.2 222.3 97.5 221.2 96.1 220.1 94.6 219.6 92.8 219.6 90.8 219.6 88.7 220.1 86.9 221.2 85.5 222.3 84 223.6 83.3 225.4 83.3 227.2 83.3 228.6 84 229.7 85.5 230.7 86.9 231.2 88.7 231.2 90.8 231.2 92.8 230.7 94.6 229.7 96.1ZM268.9 87.9C268.3 84.8 266.6 83.3 264 83.3 261.2 83.3 259.4 85.4 258.9 87.9L268.9 87.9ZM180.8 74.8L174.9 74.8 174.9 83.9 180.8 83.9C183.7 83.9 185.1 82.4 185.1 79.4 185.1 76.3 183.7 74.8 180.8 74.8ZM328.9 78.9C324.9 78.9 321.9 75.8 321.9 71.7 321.9 67.6 324.9 64.5 328.9 64.5 332.9 64.5 335.9 67.6 335.9 71.7 335.9 75.8 332.9 78.9 328.9 78.9ZM328.9 77.5C332.2 77.5 334.4 75 334.4 71.7 334.4 68.4 332.2 65.9 328.9 65.9 325.6 65.9 323.3 68.4 323.3 71.7 323.3 75 325.6 77.5 328.9 77.5ZM327.6 75.6L326.2 75.6 326.2 67.8 329.1 67.8C330.7 67.8 331.6 68.7 331.6 70.1 331.6 71.2 330.8 72 329.8 72.2L332.1 75.6 330.6 75.6 328.4 72.3 327.6 72.3 327.6 75.6ZM243.2 69C241.9 70.4 241.9 72.6 243.2 73.9 244.4 75.3 246.5 75.3 247.8 73.9 249.1 72.6 249.1 70.4 247.8 69 246.5 67.7 244.4 67.7 243.2 69ZM327.6 71.1L329 71.1C329.8 71.1 330.2 70.7 330.2 70.1 330.2 69.4 329.8 69 329 69L327.6 69 327.6 71.1ZM110.4 50L110.4 25.5 104.7 25.5 104.7 35.2C104.7 41.4 102.4 45.2 99.4 45.2 97.2 45.2 96.1 43.8 96.1 41.2L96.1 25.5 90.4 25.5 90.4 43C90.4 47.8 93.2 50.3 97.5 50.3 100.4 50.3 102.8 48.9 104.7 46L104.7 50 110.4 50ZM37.4 16L31.4 16 31.4 38.7C31.4 43 29.9 44.5 27.1 44.5 24.9 44.5 23.6 43.1 23.1 40.2L17.2 41.6C17.8 47 21.5 50.3 27.1 50.3 33.8 50.3 37.4 46.8 37.4 38L37.4 16ZM129.8 48C128.3 49.6 126.3 50.3 123.9 50.3 121.7 50.3 119.7 49.7 118.1 48.3 116.5 47 115.4 45.5 114.7 43.7L119.2 41.2C120.2 43.8 121.7 45.2 123.9 45.2 125.8 45.2 126.8 44.3 126.8 42.6 126.8 41.8 126.4 41.2 125.5 40.7 125.1 40.5 124.6 40.3 124.2 40.1 123.4 39.8 121.8 39.2 120.9 38.8 118 37.5 116.2 35.7 116.2 32.2 116.2 30.2 116.9 28.6 118.3 27.2 119.7 25.8 121.5 25.1 123.7 25.1 126.8 25.1 129.5 26.7 131 29.1L127.5 32.4C126.5 31 125.2 30.2 123.7 30.2 122.5 30.2 121.5 31 121.5 32.3 121.5 33.3 122.3 34.1 123.8 34.7L125.4 35.3 127.4 36C127.8 36.2 128.3 36.5 129.1 36.9 129.8 37.4 130.4 37.8 130.7 38.2 131.4 39 132.2 40.5 132.2 42.2 132.2 44.5 131.4 46.4 129.8 48ZM83.1 48C81.6 49.6 79.6 50.3 77.1 50.3 74.9 50.3 73 49.7 71.4 48.3 69.8 47 68.6 45.5 67.9 43.7L72.5 41.2C73.4 43.8 75 45.2 77.1 45.2 79 45.2 80 44.3 80 42.6 80 41.8 79.6 41.2 78.8 40.7 78.3 40.5 77.9 40.3 77.5 40.1 76.7 39.8 75.1 39.2 74.2 38.8 71.2 37.5 69.5 35.7 69.5 32.2 69.5 30.2 70.2 28.6 71.6 27.2 72.9 25.8 74.7 25.1 76.9 25.1 80 25.1 82.7 26.7 84.2 29.1L80.8 32.4C79.7 31 78.4 30.2 76.9 30.2 75.8 30.2 74.8 31 74.8 32.3 74.8 33.3 75.5 34.1 77 34.7L78.7 35.3 80.6 36C81 36.2 81.6 36.5 82.3 36.9 83.1 37.4 83.6 37.8 84 38.2 84.7 39 85.4 40.5 85.4 42.2 85.4 44.5 84.6 46.4 83.1 48ZM64.6 39.7L64.6 37.2C64.6 34.4 63.8 31.6 62.1 29.2 60.5 26.7 57.5 25.1 53.8 25.1 45.8 25.1 42.6 31.9 42.6 37.7 42.6 43.5 45.8 50.3 53.8 50.3 58.8 50.3 62.3 48 64.3 43.2L59.7 41.4C58.3 43.9 56.4 45.2 54.1 45.2 50.8 45.2 48.7 42.6 48.6 39.7L64.6 39.7ZM194 50.2L199.8 50.2 199.8 25.7 194 25.7 194 50.2ZM206 50.2L211.7 50.2 211.7 15.8 206 15.8 206 50.2ZM168.9 16.2L189.3 16.2 189.3 22.1 174.9 22.1 174.9 29.8 186.5 29.8 186.5 35.6 174.9 35.6 174.9 50.2 168.9 50.2 168.9 16.2ZM223.5 25.7L223.5 29.7C225.3 26.8 227.6 25.4 230.2 25.4 233.2 25.4 235.7 27.1 236.7 30.4 238.5 27.1 240.8 25.4 243.8 25.4 248.1 25.4 250.7 28.2 250.7 32.9L250.7 50.2 245 50.2 245 33.9C245 31.6 244 30.5 242.1 30.5 239.2 30.5 237.1 34.1 237.1 40.7L237.1 50.2 231.4 50.2 231.4 33.9C231.4 31.6 230.4 30.5 228.5 30.5 225.6 30.5 223.5 34.2 223.5 41.2L223.5 50.2 217.8 50.2 217.8 25.7 223.5 25.7ZM58.8 35.2L48.8 35.2C49.3 32.7 51.1 30.6 53.9 30.6 56.5 30.6 58.2 32.1 58.8 35.2ZM199.2 21.2C200.5 19.8 200.5 17.6 199.2 16.3 198 14.9 195.8 14.9 194.6 16.3 193.3 17.6 193.3 19.8 194.6 21.2 195.8 22.5 198 22.5 199.2 21.2L199.2 21.2Z"/></g></g></svg>
